# xmcd
#
# Track frame offsets: 
#        150
#        33012
#        52026
#        69746
#        89861
#        105610
#        134159
#        153601
#        176471
#        197455
#        215914
#        234072
#        253791
#        276635
#        295937
#        318972
#        343142
#
# Disc length: 4793 seconds
#
# Revision: 0
# Processed by: cddbd v1.5.2PL0 Copyright (c) Steve Scherf et al.
# Submitted via: ExactAudioCopy v1.0b3
#
DISCID=1012b711
DTITLE=Chris Rea - Super Route  CD1
DYEAR=2013
DGENRE=Slow Rock
TTITLE0=Auberge
TTITLE1=Little Blonde Plaits
TTITLE2=Shine, Shine, Shine
TTITLE3=That's What They Always Say
TTITLE4=I Just Wanna Be with You
TTITLE5=Curse Of the Traveler
TTITLE6=Whatever Happened to Benny Santini
TTITLE7=On the Beach
TTITLE8=Sweet Summer Day
TTITLE9=Fool (If You Think It's Over)
TTITLE10=I Ain't the Fool
TTITLE11=Soft Top Hard Shoulder
TTITLE12=Speed
TTITLE13=Nothing's Happening By the Sea
TTITLE14=Daytona
TTITLE15=Wired to the Moon
TTITLE16=New Way
EXTD=
EXTT0=
EXTT1=
EXTT2=
EXTT3=
EXTT4=
EXTT5=
EXTT6=
EXTT7=
EXTT8=
EXTT9=
EXTT10=
EXTT11=
EXTT12=
EXTT13=
EXTT14=
EXTT15=
EXTT16=
PLAYORDER=
